<?xml version="1.0" encoding="UTF-8" standalone="no"?><!DOCTYPE svg PUBLIC "-//W3C//DTD SVG 1.1//EN" "http://www.w3.org/Graphics/SVG/1.1/DTD/svg11.dtd"><svg width="100%" height="100%" viewBox="0 0 146 201" version="1.1" xmlns="http://www.w3.org/2000/svg" xmlns:xlink="http://www.w3.org/1999/xlink" xml:space="preserve" xmlns:serif="http://www.serif.com/" style="fill-rule:evenodd;clip-rule:evenodd;stroke-linejoin:round;stroke-miterlimit:2;"><path d="M65.713,0c1.138,0 2.092,0.406 2.864,1.219c0.772,0.812 1.158,1.787 1.158,2.925l-0,77.02c-0,1.138 -0.386,2.113 -1.158,2.925c-0.772,0.813 -1.726,1.219 -2.864,1.219l-13.771,-0l0,-85.308l13.771,0Zm-4.143,77.143l-0,-68.978l-1.463,0l0,68.978l1.463,-0Zm23.399,8.165l-9.75,-0c-1.137,-0 -2.092,-0.386 -2.864,-1.158c-0.772,-0.772 -1.158,-1.726 -1.158,-2.864l0,-57.887c0,-1.138 0.386,-2.113 1.158,-2.925c0.772,-0.813 1.727,-1.219 2.864,-1.219l9.75,0c1.137,0 2.092,0.406 2.863,1.219c0.772,0.812 1.158,1.787 1.158,2.925l0,33.026l-9.627,0l-0,20.718l1.462,-0l-0,-19.255l8.165,-0l0,23.398c0,1.138 -0.386,2.092 -1.158,2.864c-0.771,0.772 -1.726,1.158 -2.863,1.158Zm-5.606,-37.048l1.462,-0l-0,-20.84l-1.462,0l-0,20.84Zm28.882,37.048l-11.455,-0l-6.337,-12.674l-0,-53.379l8.165,0l-0,51.429l1.462,6.459l0,-57.888l8.165,0l0,66.053Zm-84.735,-29.942c1.941,-0 3.571,0.693 4.889,2.08c1.317,1.387 1.976,3.052 1.976,4.994l0,131.486c0,1.942 -0.659,3.607 -1.976,4.994c-1.318,1.387 -2.948,2.08 -4.889,2.08l-23.51,0l-0,-145.634l23.51,-0Zm-7.074,131.695l-0,-117.756l-2.497,0l0,117.756l2.497,-0Zm16.436,13.939l-0,-112.762l13.939,-0l-0,112.762l-13.939,0Zm13.939,-145.634l-0,30.375l-13.939,0l-0,-30.375l13.939,-0Zm32.872,145.634l-13.94,0l0,-98.823l-2.496,-0l-0,98.823l-13.939,0l-0,-112.762l23.509,-0c1.942,-0 3.572,0.658 4.889,1.976c1.318,1.318 1.977,2.947 1.977,4.889l-0,105.897Zm26.006,0l-16.644,0c-1.942,0 -3.572,-0.659 -4.889,-1.976c-1.318,-1.318 -1.977,-2.948 -1.977,-4.89l0,-98.823c0,-1.942 0.659,-3.606 1.977,-4.993c1.317,-1.387 2.947,-2.08 4.889,-2.08l16.644,-0c1.942,-0 3.571,0.693 4.889,2.08c1.318,1.387 1.976,3.051 1.976,4.993l0,56.381l-16.436,0l0,35.369l2.497,-0l0,-32.872l13.939,0l0,39.945c0,1.942 -0.658,3.572 -1.976,4.89c-1.318,1.317 -2.947,1.976 -4.889,1.976Zm-9.571,-63.247l2.497,0l0,-35.576l-2.497,-0l0,35.576Zm49.308,63.247l-13.939,0l-0,-57.629l-2.497,-0l0,57.629l-13.939,0l-0,-145.634l23.509,-0c1.942,-0 3.572,0.659 4.89,1.976c1.317,1.318 1.976,2.948 1.976,4.89l0,57.629c0,1.942 -0.659,3.606 -1.976,4.993c-1.318,1.387 -2.948,2.081 -4.89,2.081l-9.57,-0l0,2.496l9.57,0c1.942,0 3.572,0.694 4.89,2.081c1.317,1.387 1.976,3.051 1.976,4.993l0,64.495Zm-16.436,-88.005l2.497,0l-0,-43.69l-2.497,0l0,43.69Z" style="fill:#db4439;"/></svg>