<?xml version="1.0" encoding="UTF-8" standalone="no"?>
<!DOCTYPE svg PUBLIC "-//W3C//DTD SVG 1.1//EN" "http://www.w3.org/Graphics/SVG/1.1/DTD/svg11.dtd">
<svg width="100%" height="100%" viewBox="0 0 68 134" version="1.1" xmlns="http://www.w3.org/2000/svg" xmlns:xlink="http://www.w3.org/1999/xlink" xml:space="preserve" xmlns:serif="http://www.serif.com/" style="fill-rule:evenodd;clip-rule:evenodd;stroke-linejoin:round;stroke-miterlimit:2;">
    <g transform="matrix(1,0,0,1,-120,-1325.72)">
        <g id="logomark.svg" transform="matrix(0.963905,0,0,0.963905,153.737,1392.23)">
            <g transform="matrix(1,0,0,1,-35,-69)">
                <g transform="matrix(1,0,0,1,2.2393,0.481)">
                    <path d="M65.761,112.516L65.688,87.659L65.672,87.659L65.745,62.819L65.655,62.867L65.704,62.786L44.113,50.33L65.736,37.849L65.664,12.992L65.672,12.976L43.392,0L0,24.962L0,75.721L20.853,87.684L0.024,99.622L0.097,124.487L22.482,137.519L22.498,137.486L65.761,112.516ZM63.921,63.881L45.159,74.781L23.471,62.252L42.282,51.391L63.921,63.881ZM43.384,2.115L63.856,14.045L23.317,37.451L2.739,25.497L43.384,2.115ZM1.832,27.078L22.409,39.032L22.474,61.676L1.832,49.762L1.832,27.078ZM1.832,74.652L1.832,51.87L44.243,76.37L44.178,99.103L23.139,86.881L23.114,86.865L22.693,86.622L1.84,74.66L1.832,74.652ZM1.913,123.425L1.848,101.737L22.417,113.683L22.482,135.404L1.913,123.433L1.913,123.425ZM2.756,100.149L22.677,88.721L43.181,100.635L23.333,112.095L2.772,100.157L2.756,100.149Z" style="fill:rgb(241,231,219);fill-rule:nonzero;"/>
                </g>
            </g>
        </g>
    </g>
</svg>
