<?xml version="1.0" encoding="UTF-8" standalone="no"?>
<!DOCTYPE svg PUBLIC "-//W3C//DTD SVG 1.1//EN" "http://www.w3.org/Graphics/SVG/1.1/DTD/svg11.dtd">
<svg width="100%" height="100%" viewBox="0 0 109 86" version="1.1" xmlns="http://www.w3.org/2000/svg" xmlns:xlink="http://www.w3.org/1999/xlink" xml:space="preserve" xmlns:serif="http://www.serif.com/" style="fill-rule:evenodd;clip-rule:evenodd;stroke-linejoin:round;stroke-miterlimit:2;">
    <g transform="matrix(1,0,0,1,-653.61,-1078.87)">
        <g id="web-3-auth-logo-dark.svg" transform="matrix(1.18239,0,0,1.18239,708,1121.43)">
            <g transform="matrix(1,0,0,1,-46,-36)">
                <g transform="matrix(1,0,0,1,0.365284,0)">
                    <path d="M77.221,57.022C76.689,59.007 73.872,59.007 73.341,57.022L67.145,33.901C67.026,33.454 67.026,32.983 67.145,32.536L72.635,12.047C73.121,10.236 74.762,8.977 76.637,8.977L84.696,8.977C87.42,8.977 89.402,11.561 88.697,14.192L77.221,57.022ZM24.067,33.863C24.187,33.416 24.187,32.945 24.067,32.498L18.587,12.047C18.102,10.236 16.461,8.977 14.586,8.977L6.527,8.977C3.803,8.977 1.82,11.561 2.525,14.192L13.991,56.983C14.523,58.968 17.34,58.968 17.872,56.983L24.067,33.863Z" style="fill:rgb(119,40,33);"/>
                    <path d="M41.519,61.68L44.592,50.212C44.875,49.158 46.371,49.158 46.654,50.212L49.727,61.68C49.908,62.358 49.397,63.024 48.696,63.024L42.55,63.024C41.849,63.024 41.338,62.358 41.519,61.68ZM35.4,69.022C34.93,70.779 33.338,72 31.52,72L23.201,72C20.56,72 18.637,69.494 19.321,66.943L36.385,3.257C36.9,1.336 38.641,0 40.63,0L50.53,0C52.518,0 54.259,1.336 54.774,3.257L71.839,66.943C72.522,69.494 70.6,72 67.958,72L59.64,72C57.821,72 56.23,70.779 55.759,69.022L47.459,38.047C46.944,36.124 44.215,36.124 43.7,38.047L35.4,69.022ZM77.245,57.022C76.713,59.007 73.896,59.007 73.364,57.022L67.169,33.901C67.049,33.454 67.049,32.983 67.169,32.536L75.064,3.071C75.549,1.259 77.191,0 79.066,0L87.124,0C89.848,0 91.831,2.584 91.126,5.215L77.245,57.022ZM24.09,33.862L17.895,56.983C17.363,58.968 14.547,58.968 14.015,56.983L0.143,5.215C-0.562,2.584 1.421,0 4.145,0L12.204,0C14.079,0 15.72,1.259 16.205,3.071L24.09,32.498C24.21,32.945 24.21,33.415 24.09,33.862Z" style="fill:rgb(241,231,219);"/>
                </g>
            </g>
        </g>
    </g>
</svg>
